# xmcd CD database file
#
# Track frame offsets:
#	150
#	21177
#	34697
#	54735
#	75667
#	93552
#	124410
#	143345
#	166522
#	190210
#	205015
#	225460
#
# Disc length: 3269 seconds
#
# Revision: 0
# Processed by: cddbd v1.5.1PL2 Copyright (c) Steve Scherf et al.
# Submitted via: CDex 1.51
#
DISCID=910cc30c
DTITLE=Jan Prins and Kind Of Blues - Blazz
DYEAR=2003
DGENRE=Blues
TTITLE0=Up And Down
TTITLE1=Let's Blues
TTITLE2=Where's The Fuse
TTITLE3=Tell Me Why
TTITLE4=Cajun Joe
TTITLE5=Creamy
TTITLE6=Scrapbook Blues
TTITLE7=Blazz
TTITLE8=Missing Link
TTITLE9=Major Minor
TTITLE10=I Don't Go
TTITLE11=Voiceless
EXTD=YEAR: 2003
EXTT0=
EXTT1=
EXTT2=
EXTT3=
EXTT4=
EXTT5=
EXTT6=
EXTT7=
EXTT8=
EXTT9=
EXTT10=
EXTT11=
PLAYORDER=
